<svg xmlns="http://www.w3.org/2000/svg" width="512" height="512" xml:space="preserve"><path fill-rule="evenodd" clip-rule="evenodd" d="M311.992 165.258c1.727 0 3.375.348 4.922.852 35.555 7.176 67.453 20.461 93.484 38.168C420.969 196.578 433.922 192 448 192c35.336 0 64 28.645 64 64 0 23.93-13.148 44.758-32.578 55.734.195 2.758.578 5.477.578 8.266 0 88.359-100.305 160-224 160-123.711 0-224-71.641-224-160 0-2.789.391-5.508.586-8.266C13.148 300.758 0 279.93 0 256c0-35.355 28.648-64 64-64 14.062 0 27.039 4.578 37.609 12.277 32.734-22.305 74.859-37.449 121.773-42.34.172-.133.328-.309.617-.328 12.297-1.164 23.141-9.484 27.25-21.703l17.32-64.641c8.109-22.457 31.531-35.547 55.039-30.504l26.453 7.098c.023.02-.023.078.023.078C369.57 56.961 384 74.668 384 95.746c0 .039.023.059.023.098 0 .059-.023.098-.023.156 0 17.668 14.312 32 32 32 17.672 0 32-14.332 32-32 0-5.875-1.688-11.309-4.461-16.039l.117-.059c-1.336-2.348-2.172-5.023-2.172-7.914 0-8.824 7.18-15.996 16-15.996 5.859 0 10.898 3.16 13.695 7.852l.078-.039C476.781 73.27 480 84.246 480 96c0 35.355-28.664 64-64 64-35.352 0-64-28.645-64-64 0-5.934-3.758-10.938-9-12.918l-25.672-6.883c-8.055-1.844-16.141 2.715-18.719 10.551l-16.68 62.312c-7.68 24.551-28.836 41.348-53.078 44.371C135.719 202.258 64 255.477 64 320c0 70.688 85.953 128 192 128 106.031 0 192-57.312 192-128 0-58.359-58.625-107.48-138.703-122.898l.016-.117c-7.562-1.262-13.32-7.816-13.32-15.73-.001-8.841 7.155-15.997 15.999-15.997zM74.961 226.055C71.523 224.797 67.859 224 64 224c-17.688 0-32 14.332-32 32 0 8.227 3.18 15.648 8.305 21.336 7.25-18.719 19.078-36 34.656-51.281zm396.742 51.281C476.82 271.648 480 264.227 480 256c0-17.668-14.328-32-32-32-3.875 0-7.539.797-10.977 2.055 15.579 15.281 27.422 32.562 34.68 51.281zM305.125 288c0-17.047 13.812-30.875 30.875-30.875 17.047 0 30.859 13.828 30.859 30.875S353.047 318.875 336 318.875c-17.062 0-30.875-13.828-30.875-30.875zm-160 0c0-17.047 13.812-30.875 30.875-30.875 17.047 0 30.859 13.828 30.859 30.875S193.047 318.875 176 318.875c-17.062 0-30.875-13.828-30.875-30.875zm170.008 78.523.039.023c2.914-3.938 7.547-6.539 12.82-6.539 8.844 0 16 7.156 16 16v.062c0 .172-.055.344-.055.523-.039.945-.117 1.898-.312 2.789C339.82 399.906 302.086 416 256 416c-44.953 0-81.883-15.344-87.172-35.125-.508-1.547-.836-3.156-.836-4.867 0-8.844 7.156-16 16-16 5.82 0 10.82 3.141 13.633 7.758l.156-.055C206.023 377.172 228.945 384 256 384c28.164 0 51.844-7.406 59.133-17.477zM416 64c-8.844 0-16-7.156-16-16s7.156-16 16-16c8.828 0 16 7.156 16 16s-7.172 16-16 16z"/><path fill="#F32" d="M176 320c-17.688 0-32-14.336-32-32s14.312-32 32-32c17.672 0 32 14.336 32 32s-14.328 32-32 32zm160 0c-17.688 0-32-14.336-32-32s14.312-32 32-32c17.672 0 32 14.336 32 32s-14.328 32-32 32z"/></svg>